<?xml version="1.0" encoding="UTF-8"?>
<svg width="13px" height="25px" viewBox="0 0 13 25" version="1.1" xmlns="http://www.w3.org/2000/svg" xmlns:xlink="http://www.w3.org/1999/xlink">
    <!-- Generator: Sketch 39.1 (31720) - http://www.bohemiancoding.com/sketch -->
    <title>Untitled</title>
    <desc>Created with Sketch.</desc>
    <defs></defs>
    <g id="Page-1" stroke="none" stroke-width="1" fill="none" fill-rule="evenodd">
        <g id="Forward_000000" transform="translate(6.500000, 12.500000) scale(-1, 1) translate(-6.500000, -12.500000) " fill="#000000">
            <path d="M1.12491487,0.562633182 C0.894914926,0.56269404 0.687883867,0.702835323 0.601336736,0.917048173 C0.514789605,1.13126102 0.56598481,1.37682915 0.730808565,1.53808591 L11.6355302,12.5 L0.730808565,23.4619142 C0.583150725,23.6044236 0.523670163,23.8160432 0.575306629,24.015158 C0.626943094,24.2142728 0.781627763,24.3697687 0.97970371,24.421676 C1.17777966,24.4735833 1.38829511,24.4137908 1.530061,24.2653585 L12.8344088,12.9017222 C13.0550516,12.6798302 13.0550516,12.3201698 12.8344088,12.0982778 L1.530061,0.734641364 C1.42364689,0.624679549 1.27752457,0.562642094 1.12491487,0.562633182 L1.12491487,0.562633182 Z" id="Shape"></path>
        </g>
    </g>
</svg>