<?xml version="1.0" encoding="UTF-8"?>
<svg width="33px" height="63px" viewBox="0 0 33 63" version="1.1" xmlns="http://www.w3.org/2000/svg" xmlns:xlink="http://www.w3.org/1999/xlink">
    <!-- Generator: Sketch 39.1 (31720) - http://www.bohemiancoding.com/sketch -->
    <title>Slice 1</title>
    <desc>Created with Sketch.</desc>
    <defs></defs>
    <g id="Page-1" stroke="none" stroke-width="1" fill="none" fill-rule="evenodd">
        <path d="M12.5263158,0 C10.4651669,0 8.76842105,1.69674647 8.76842105,3.75789474 L8.76842105,7.51578947 C8.76842105,8.16994149 9.00074538,8.84416706 9.47302632,9.31644737 C9.82723671,9.67065763 10.277068,9.89442836 10.7648026,9.98190789 C10.5800708,10.1271057 10.3497407,10.2424216 10.0601974,10.2950658 L10.0210526,10.2950658 C4.33114655,11.5440696 0,16.5648664 0,22.6648026 L0,26.3052632 C0,27.8823764 1.11532938,29.0007259 2.50526316,29.5542763 L2.50526316,45.6036184 C1.11532938,46.1571688 0,47.2755183 0,48.8526316 L0,56.3684211 C0,59.8074647 2.82411426,62.6315789 6.26315789,62.6315789 L26.3052632,62.6315789 C29.7443068,62.6315789 32.5684211,59.8074647 32.5684211,56.3684211 L32.5684211,48.8526316 C32.5684211,47.2755183 31.4530917,46.1571688 30.0631579,45.6036184 L30.0631579,29.5542763 C31.4530917,29.0007259 32.5684211,27.8823764 32.5684211,26.3052632 L32.5684211,22.6648026 C32.5684211,16.5648664 28.2372745,11.5440696 22.5473684,10.2950658 L22.5082237,10.2950658 C22.2186804,10.2424216 21.9883503,10.1271057 21.8036184,9.98190789 C22.2913531,9.89442836 22.7411843,9.67065763 23.0953947,9.31644737 C23.5676757,8.84416706 23.8,8.16994149 23.8,7.51578947 L23.8,3.75789474 C23.8,1.69674647 22.1032542,0 20.0421053,0 L12.5263158,0 Z M12.5263158,2.50526316 L20.0421053,2.50526316 C20.7367458,2.50526316 21.2947368,3.06325353 21.2947368,3.75789474 L21.2947368,7.51578947 L11.2736842,7.51578947 L11.2736842,3.75789474 C11.2736842,3.06325353 11.8316752,2.50526316 12.5263158,2.50526316 Z M13.3483553,10.0210526 L19.2200658,10.0210526 C19.6747397,11.3313346 20.5979868,12.4387647 22.0384868,12.7220395 L22.0384868,12.7611842 C22.0502616,12.7634389 22.0658568,12.7590547 22.0776316,12.7611842 C26.6410461,13.7801411 30.0631579,17.7547248 30.0631579,22.6648026 L30.0631579,26.3052632 C30.0631579,26.9999037 29.5051669,27.5578947 28.8105263,27.5578947 L7.51578947,27.5578947 L7.51578947,30.0631579 L27.5578947,30.0631579 L27.5578947,45.0947368 L7.51578947,45.0947368 L7.51578947,47.6 L27.5578947,47.6 L28.8105263,47.6 C29.5051669,47.6 30.0631579,48.157991 30.0631579,48.8526316 L30.0631579,56.3684211 C30.0631579,58.4409564 28.3777985,60.1263158 26.3052632,60.1263158 L6.26315789,60.1263158 C4.19062258,60.1263158 2.50526316,58.4409564 2.50526316,56.3684211 L2.50526316,48.8526316 C2.50526316,48.157991 3.06325416,47.6 3.75789474,47.6 L5.01052632,47.6 L5.01052632,46.3473684 L5.01052632,28.8105263 L5.01052632,27.5578947 L3.75789474,27.5578947 C3.06325416,27.5578947 2.50526316,26.9999037 2.50526316,26.3052632 L2.50526316,22.6648026 C2.50526316,17.7547248 5.92737497,13.7801411 10.4907895,12.7611842 C10.5095163,12.7578021 10.5113201,12.7256972 10.5299342,12.7220395 C11.9704342,12.4387647 12.8936813,11.3313346 13.3483553,10.0210526 Z" id="Shape" fill="#FFFFFF"></path>
    </g>
</svg>