<?xml version="1.0" encoding="UTF-8"?>
<svg width="53px" height="53px" viewBox="0 0 53 53" version="1.1" xmlns="http://www.w3.org/2000/svg" xmlns:xlink="http://www.w3.org/1999/xlink">
    <!-- Generator: Sketch 39.1 (31720) - http://www.bohemiancoding.com/sketch -->
    <title>Slice 1</title>
    <desc>Created with Sketch.</desc>
    <defs></defs>
    <g id="Page-1" stroke="none" stroke-width="1" fill="none" fill-rule="evenodd">
        <path d="M26.1933431,0.0021063768 C26.1535772,0.0132114976 26.1143847,0.0262756875 26.0759089,0.0412511136 L8.77393523,0.0412511136 C8.73481201,0.0394153788 8.69562423,0.0394153788 8.65650102,0.0412511136 C8.6173778,0.0394153788 8.57819002,0.0394153788 8.53906681,0.0412511136 C8.33652679,0.0858197687 8.14821942,0.179973449 7.99104049,0.315264272 L0.592685226,6.50013269 L0.475251016,6.57842217 C0.420075345,6.61342359 0.367722626,6.65268813 0.318672068,6.69585638 C0.305337192,6.70861481 0.292285763,6.72166624 0.279527331,6.73500111 C0.27932346,6.74804856 0.27932346,6.7610984 0.279527331,6.77414585 C0.266479881,6.77394206 0.253430044,6.77394206 0.240382595,6.77414585 C0.239566962,6.80023597 0.239566962,6.82634521 0.240382595,6.85243532 C0.21210002,6.89007775 0.185962059,6.92928469 0.162093121,6.96986953 C0.114831796,7.04383071 0.0754710539,7.12255219 0.0446589103,7.20473796 C0.0241832492,7.28160703 0.011075814,7.36025164 0.00551417349,7.43960638 C-0.00183805783,7.51772324 -0.00183805783,7.59635794 0.00551417349,7.6744748 L0.00551417349,51.3991459 C0.00558334118,52.0909265 0.566365086,52.6517083 1.25814575,52.6517774 L51.3634089,52.6517774 C52.0551896,52.6517083 52.6159713,52.0909265 52.6160405,51.3991459 L52.6160405,7.75276427 C52.6211428,7.6876228 52.6211428,7.62218206 52.6160405,7.55704059 C52.6168561,7.53095047 52.6168561,7.50484123 52.6160405,7.47875111 C52.6162443,7.46570366 52.6162443,7.45265383 52.6160405,7.43960638 C52.6168561,7.41351626 52.6168561,7.38740702 52.6160405,7.3613169 C52.6032821,7.34798203 52.5902306,7.3349306 52.5768958,7.32217217 C52.5777114,7.29608205 52.5777114,7.26997281 52.5768958,7.24388269 C52.5770995,7.23083524 52.5770995,7.21778541 52.5768958,7.20473796 C52.5647635,7.17819345 52.5517072,7.15208103 52.537751,7.12644848 C52.5249926,7.11311361 52.5119412,7.10006218 52.4986063,7.08730375 C52.4994219,7.06121363 52.4994219,7.03510439 52.4986063,7.00901427 C52.4858478,6.99567939 52.4727964,6.98262797 52.4594615,6.96986953 C52.4473292,6.94332503 52.434273,6.9172126 52.4203168,6.89158006 C52.4075584,6.87824518 52.3945069,6.86519376 52.3811721,6.85243532 C52.3684138,6.83910034 52.3553623,6.82604891 52.3420273,6.81329059 C52.3298947,6.78674625 52.3168385,6.76063384 52.3028826,6.73500111 C52.2901243,6.72166613 52.2770728,6.70861469 52.2637379,6.69585638 C52.2509794,6.6825215 52.237928,6.66947007 52.2245931,6.65671164 C52.2118348,6.64337665 52.1987834,6.63032522 52.1854484,6.6175669 C52.17269,6.60423203 52.1596385,6.5911806 52.1463036,6.57842217 L52.0288694,6.50013269 C52.0039395,6.47289519 51.9778175,6.4467732 51.95058,6.42184322 L44.6305142,0.315264272 C44.4082355,0.137676327 44.1321282,0.0410387924 43.8476194,0.0412511136 L26.5847905,0.0412511136 C26.4571838,0.0076689225 26.3250728,-0.0055421778 26.1933431,0.0021063768 Z M9.24367207,2.54651427 L25.0581458,2.54651427 L25.0581458,6.30440901 L4.74202733,6.30440901 L9.24367207,2.54651427 Z M27.5634089,2.54651427 L43.3778826,2.54651427 L47.8795273,6.30440901 L27.5634089,6.30440901 L27.5634089,2.54651427 Z M2.51077733,8.80967217 L50.1107773,8.80967217 L50.1107773,50.1465143 L2.51077733,50.1465143 L2.51077733,8.80967217 Z M21.9265668,13.8201985 C20.1937602,13.8201985 18.7949879,15.2189708 18.7949879,16.9517774 C18.7949879,18.684584 20.1937602,20.0833564 21.9265668,20.0833564 L30.6949879,20.0833564 C32.4277945,20.0833564 33.8265668,18.684584 33.8265668,16.9517774 C33.8265668,15.2189708 32.4277945,13.8201985 30.6949879,13.8201985 L21.9265668,13.8201985 Z M21.9265668,16.3254616 L30.6949879,16.3254616 C30.9663918,16.3254616 31.3213036,16.6803735 31.3213036,16.9517774 C31.3213036,17.2231814 30.9663918,17.5780932 30.6949879,17.5780932 L21.9265668,17.5780932 C21.6551629,17.5780932 21.300251,17.2231814 21.300251,16.9517774 C21.300251,16.6803735 21.6551629,16.3254616 21.9265668,16.3254616 Z M33.8265668,33.8623037 L30.0686721,37.6201985 L32.5739352,37.6201985 L32.5739352,42.6307248 L35.0791984,42.6307248 L35.0791984,37.6201985 L37.5844615,37.6201985 L33.8265668,33.8623037 Z M42.5949879,33.8623037 L38.8370931,37.6201985 L41.3423563,37.6201985 L41.3423563,42.6307248 L43.8476194,42.6307248 L43.8476194,37.6201985 L46.3528826,37.6201985 L42.5949879,33.8623037 Z M30.0686721,43.8833564 L30.0686721,46.3886195 L46.3528826,46.3886195 L46.3528826,43.8833564 L30.0686721,43.8833564 Z" id="Shape" fill="#FFFFFF"></path>
    </g>
</svg>