<?xml version="1.0" encoding="UTF-8"?>
<svg width="16px" height="20px" viewBox="0 0 16 20" version="1.1" xmlns="http://www.w3.org/2000/svg" xmlns:xlink="http://www.w3.org/1999/xlink">
    <!-- Generator: Sketch 39.1 (31720) - http://www.bohemiancoding.com/sketch -->
    <title>Untitled 3</title>
    <desc>Created with Sketch.</desc>
    <defs></defs>
    <g id="Page-1" stroke="none" stroke-width="1" fill="none" fill-rule="evenodd">
        <path d="M0,0 L0,13 L0,20 L2,20 L2,13 L14,13 C15.1,13 16,12.1 16,11 L16,2 C16,0.9 15.1,0 14,0 L2,0 L0,0 Z M5,2 L8,2 L8,5 L11,5 L11,2 L14,2 L14,5 L11,5 L11,8 L14,8 L14,11 L11,11 L11,8 L8,8 L8,11 L5,11 L5,8 L2,8 L2,5 L5,5 L5,2 Z M5,5 L5,8 L8,8 L8,5 L5,5 Z" id="Shape" fill="#80BA27"></path>
    </g>
</svg>