<?xml version="1.0" encoding="UTF-8"?>
<svg width="49px" height="50px" viewBox="0 0 49 50" version="1.1" xmlns="http://www.w3.org/2000/svg" xmlns:xlink="http://www.w3.org/1999/xlink">
    <!-- Generator: Sketch 39.1 (31720) - http://www.bohemiancoding.com/sketch -->
    <title>Slice 1</title>
    <desc>Created with Sketch.</desc>
    <defs></defs>
    <g id="Page-1" stroke="none" stroke-width="1" fill="none" fill-rule="evenodd">
        <path d="M8.91634191,0 C5.61447811,0 2.91634191,2.6981362 2.91634191,6 C2.91634191,9.3018638 5.61447811,12 8.91634191,12 C12.2182059,12 14.9163419,9.3018638 14.9163419,6 C14.9163419,2.6981362 12.2182059,0 8.91634191,0 Z M38.9163419,0 C35.6144779,0 32.9163419,2.6981362 32.9163419,6 C32.9163419,9.3018638 35.6144779,12 38.9163419,12 C42.2182059,12 44.9163419,9.3018638 44.9163419,6 C44.9163419,2.6981362 42.2182059,0 38.9163419,0 Z M8.91634191,2 C11.1373259,2 12.9163419,3.7790164 12.9163419,6 C12.9163419,8.2209836 11.1373259,10 8.91634191,10 C6.69535831,10 4.91634191,8.2209836 4.91634191,6 C4.91634191,3.7790164 6.69535831,2 8.91634191,2 Z M38.9163419,2 C41.1373259,2 42.9163419,3.7790164 42.9163419,6 C42.9163419,8.2209836 41.1373259,10 38.9163419,10 C36.6953579,10 34.9163419,8.2209836 34.9163419,6 C34.9163419,3.7790164 36.6953579,2 38.9163419,2 Z M9.41634191,13 C8.06505981,13 6.96696281,13.09821 5.97884191,13.46875 C4.90521151,13.871361 4.06426681,14.555542 3.57259191,15.375 C3.24232741,15.925441 2.41127711,17.38513 1.63509191,18.9375 C1.24699931,19.713685 0.864209012,20.510302 0.572591912,21.21875 C0.280974812,21.927198 0.054922912,22.497366 0.010091912,23.125 C-0.060423088,23.900668 0.251582212,24.321647 0.541341912,24.90625 C0.831101612,25.490853 1.20730891,26.13117 1.57259191,26.78125 C2.30315781,28.08141 2.91634191,29.561806 2.91634191,29.90625 C2.91634191,30.917361 3.04996091,31.660343 3.54134191,32.25 C3.73054151,32.477039 3.95660531,32.634901 4.19759191,32.75 C4.04004541,36.620128 3.76748101,39.661508 3.54134191,41.84375 C3.29515751,44.219429 3.07141041,45.562558 3.01009191,46.28125 C3.00864191,46.2921 3.01146191,46.30166 3.01009191,46.3125 C2.89315871,47.234383 3.03820091,48.127741 3.54134191,48.84375 C4.05039941,49.568178 4.95443711,50 5.91634191,50 C6.78300861,50 7.48816071,49.556727 8.01009191,49 C8.35272551,48.634524 8.45280821,48.116743 8.60384191,47.625 C8.65534791,47.983913 8.59907191,48.331805 8.79134191,48.6875 C9.18685491,49.4192 10.0649529,50 11.1038419,50 C12.0760639,50 12.9561869,49.609343 13.4475919,49 C13.9389969,48.390657 14.0861429,47.706718 14.1975919,47.09375 C14.1977547,47.083334 14.1977547,47.072916 14.1975919,47.0625 C15.1770889,41.479366 15.5825709,33.644228 15.7913419,27.4375 C15.8867339,27.45919 15.9706069,27.477277 16.0725919,27.5 C16.6913319,27.637862 17.4171639,27.758983 18.1350919,27.90625 C19.5709469,28.200784 21.0424029,28.701802 21.3538419,28.96875 C22.1580539,29.658074 22.9437409,30.016332 23.7288419,29.96875 C23.9449591,30.0317816 24.1759421,30.0207824 24.3850919,29.9375 C24.6008049,29.85121 25.0363279,29.635041 25.7288419,29.3125 C26.4213559,28.989959 27.3280649,28.581732 28.2288419,28.125 C29.1296189,27.668268 30.0213489,27.184022 30.7913419,26.71875 C31.2486909,26.442394 31.6394209,26.206444 31.9788419,25.9375 C32.0877599,31.861026 32.5030919,40.227354 33.5413419,47.0625 C33.5398764,47.0937328 33.5398764,47.1250172 33.5413419,47.15625 C33.6933659,47.713671 33.8537169,48.363119 34.3225919,48.96875 C34.7914669,49.574381 35.6316199,50 36.6038419,50 C37.6427309,50 38.5599879,49.456731 38.9788419,48.71875 C39.1715929,48.379141 39.0824999,48.01267 39.1350919,47.65625 C39.2752219,48.127572 39.3356659,48.635116 39.6663419,49 C40.1829489,49.57005 40.9392589,50 41.8225919,50 C42.7844969,50 43.6885339,49.568178 44.1975919,48.84375 C44.7007299,48.127746 44.8145209,47.234377 44.6975919,46.3125 C44.6971809,46.3076 44.6980179,46.28625 44.6975919,46.28125 C44.6362719,45.562552 44.4437739,44.219403 44.1975919,41.84375 C43.9763539,39.708802 43.7309479,36.748031 43.5725919,33 C44.0462359,32.984254 44.6656989,32.875646 45.1663419,32.375 C45.7198989,31.821443 45.9163419,31.02963 45.9163419,30 C45.9163419,29.655556 46.5295259,28.17516 47.2600919,26.875 C47.6253749,26.22492 48.0015819,25.584603 48.2913419,25 C48.5811019,24.415397 48.8931069,23.994418 48.8225919,23.21875 C48.7777619,22.591116 48.5517089,22.052198 48.2600919,21.34375 C47.9684749,20.635302 47.5856849,19.838685 47.1975919,19.0625 C46.4214069,17.51013 45.5903559,16.050441 45.2600919,15.5 C45.1958419,15.392915 44.7273319,14.491541 43.6975919,13.96875 C42.6678519,13.445959 41.1060859,13.09375 38.4163419,13.09375 C36.2769109,13.09375 34.7047529,13.377053 33.5725919,13.8125 C32.4887429,14.229365 31.7851169,14.780904 31.4475919,15.5625 L31.4163419,15.5625 C31.4163419,15.5625 31.3863919,15.65361 31.3850919,15.65625 C31.3455519,15.73692 30.7312989,16.928749 30.0725919,18.34375 C29.7324459,19.074435 29.3830869,19.84522 29.1038419,20.5 C28.8964849,20.986216 28.8098149,21.32447 28.6975919,21.6875 C28.6966619,21.6905 28.6672619,21.6845 28.6663419,21.6875 C28.5464349,21.77504 28.3674169,21.940328 28.1350919,22.09375 C27.6528349,22.412222 26.9812449,22.808646 26.3225919,23.21875 C25.1310789,23.960636 24.1627849,24.554986 23.9475919,24.6875 C23.6191729,24.520978 23.2643149,24.359445 22.8850919,24.21875 C22.2088499,23.967859 21.4810489,23.750672 20.7600919,23.53125 C20.0391349,23.311828 19.3277999,23.089046 18.8225919,22.90625 C18.5699879,22.81485 18.3828169,22.749839 18.2600919,22.6875 C17.4642489,20.717599 16.7792469,18.973392 16.1663419,17.625 C15.5235809,16.210925 14.9808459,15.180799 14.1975919,14.46875 C12.8854909,13.287859 11.0496749,13 9.41634191,13 Z M9.41634191,15 C10.7830089,15 12.1659429,15.318391 12.8538419,15.9375 C13.1705879,16.225451 13.7153529,17.132825 14.3225919,18.46875 C14.9298309,19.804675 15.6269539,21.582834 16.4788419,23.6875 C16.5133116,23.7545097 16.5552444,23.8174088 16.6038419,23.875 C16.8613969,24.235577 17.1082079,24.343979 17.3538419,24.46875 C17.5994759,24.593521 17.8392579,24.70546 18.1350919,24.8125 C18.7267589,25.026579 19.4497989,25.219422 20.1663419,25.4375 C20.8828849,25.655578 21.6019589,25.872766 22.1975919,26.09375 C22.7932249,26.314734 23.2855429,26.573293 23.3850919,26.65625 C23.8612529,27.053051 23.9621709,27.324136 23.9788419,27.4375 C23.9955119,27.550864 23.9674119,27.613719 23.8538419,27.75 C23.6808039,27.957646 23.6437409,27.966332 23.6038419,27.96875 C23.5639419,27.97115 23.2621299,27.94818 22.6663419,27.4375 C21.5777809,26.504448 20.0304869,26.242966 18.5413419,25.9375 C17.7967699,25.784767 17.0694769,25.655888 16.5100919,25.53125 C15.9901659,25.415404 15.6313799,25.295537 15.6350919,25.3125 C15.6351249,25.312651 15.6349889,25.28107 15.6350919,25.28125 C15.5619419,25.171522 15.4466999,24.971622 15.3225919,24.75 C15.0743749,24.306756 14.7438649,23.717546 14.4475919,23.125 C13.8550459,21.939907 13.3225919,20.78125 13.3225919,20.78125 C13.1788897,20.4461796 12.8642351,20.2158565 12.5014025,20.1801498 C12.1385699,20.1444431 11.7850537,20.309011 11.5787917,20.609641 C11.3725296,20.9102711 11.346206,21.2993255 11.5100919,21.625 C11.5100919,21.625 12.0588879,22.816343 12.6663419,24.03125 C12.9700689,24.638704 13.2958089,25.255744 13.5725919,25.75 C13.6845269,25.949883 13.7872989,26.096399 13.8850919,26.25 C13.8476956,26.3501582 13.8265946,26.455663 13.8225919,26.5625 C13.6230499,32.848077 13.2081339,41.136784 12.2288419,46.71875 C12.1402909,47.205782 12.0186869,47.584343 11.8850919,47.75 C11.7514969,47.915657 11.6316199,48 11.1038419,48 C10.6427309,48 10.6458289,47.9433 10.5413419,47.75 C10.4429219,47.567915 10.3913879,47.149808 10.4163419,46.75 C10.4179419,46.73896 10.4147419,46.72978 10.4163419,46.71875 C10.4172849,46.70643 10.4152419,46.69982 10.4163419,46.6875 C11.2189149,41.130716 11.2116629,36.173605 11.0100919,32.34375 C10.9769963,31.8160355 10.5388422,31.4052661 10.0100919,31.40625 L9.91634191,31.40625 C9.39870737,31.404018 8.9649127,31.7971444 8.91634191,32.3125 C8.32234751,39.539432 6.94759191,46.71875 6.94759191,46.71875 C6.9312458,46.7801161 6.92078188,46.8428996 6.91634191,46.90625 C6.91634191,47.072917 6.80066071,47.412977 6.57259191,47.65625 C6.34452311,47.899523 6.04967521,48 5.91634191,48 C5.47824671,48 5.33853441,47.888072 5.19759191,47.6875 C5.05664941,47.486928 4.93452391,47.09801 5.01009191,46.53125 C5.01074305,46.5104218 5.01074305,46.4895782 5.01009191,46.46875 C5.05054691,45.983295 5.28923561,44.464076 5.54134191,42.03125 C5.77722431,39.754985 6.04101971,36.58913 6.19759191,32.53125 C6.37424546,32.2352924 6.38605401,31.8692275 6.22884191,31.5625 L6.32259191,21.71875 C6.33133399,21.4426582 6.22549457,21.1752457 6.03017037,20.9799215 C5.83484618,20.7845973 5.56743367,20.6787579 5.29134191,20.6875 C4.94206516,20.6953526 4.62220363,20.8849002 4.44759191,21.1875 L3.76009191,22.40625 C3.60155956,22.6654165 3.56942855,22.9825939 3.67276488,23.2682885 C3.77610121,23.5539831 4.00369972,23.7772158 4.29134191,23.875 L4.26009191,27.59375 C3.96472551,26.996036 3.62217001,26.401262 3.29134191,25.8125 C2.91912491,25.15008 2.56720721,24.493522 2.32259191,24 C2.13913041,23.629859 2.07478581,23.273495 2.04134191,23.21875 C2.06484201,23.084115 2.17460651,22.587267 2.41634191,22 C2.67784981,21.364698 3.04193451,20.592565 3.41634191,19.84375 C4.16515671,18.34612 4.99035641,16.855809 5.26009191,16.40625 C5.36841701,16.225708 6.13997231,15.541139 6.66634191,15.34375 C7.27822101,15.114295 8.16762401,15 9.41634191,15 Z M38.4163419,15.09375 C40.9265979,15.09375 42.1960819,15.447791 42.7913419,15.75 C43.3866019,16.052209 43.3368429,16.107085 43.5725919,16.5 C43.8423279,16.949559 44.6675269,18.43987 45.4163419,19.9375 C45.7907489,20.686315 46.1548339,21.458448 46.4163419,22.09375 C46.6580769,22.681017 46.7678419,23.177865 46.7913419,23.3125 C46.7578989,23.376034 46.6935569,23.754859 46.5100919,24.125 C46.2654769,24.618522 45.9135589,25.24383 45.5413419,25.90625 C44.7969079,27.23109 43.9163419,28.544444 43.9163419,30 C43.9163419,30.77037 43.7565349,30.972307 43.7600919,30.96875 C43.7636489,30.965193 43.7330089,31 43.4163419,31 C43.2246749,31 43.2022029,30.985562 43.1350919,30.90625 C43.0679809,30.826938 42.9163419,30.560417 42.9163419,29.90625 C42.9163419,29.766667 43.0129219,29.223144 43.2288419,28.625 C43.4447569,28.026856 43.7741099,27.340272 44.0725919,26.65625 C44.3710739,25.972228 44.6631089,25.300616 44.8850919,24.71875 C44.9960839,24.427817 45.0693849,24.169598 45.1350919,23.90625 C45.2008019,23.642902 45.3075979,23.408775 45.1975919,22.96875 C45.1887265,22.9370041 45.1782971,22.905716 45.1663419,22.875 C45.0675519,22.578641 44.9764499,22.483294 44.8538419,22.28125 C44.7312339,22.079206 44.5884389,21.855083 44.4163419,21.59375 C44.0721479,21.071085 43.6565359,20.438416 43.2600919,19.84375 C43.0016219,19.4746947 42.5306404,19.3204424 42.1039259,19.4650914 C41.6772114,19.6097404 41.3971138,20.0185957 41.4163419,20.46875 L41.3225919,20.46875 C41.3225919,20.46875 41.6019029,25.393094 41.3225919,28 C41.0878099,28.657032 40.9163419,29.267573 40.9163419,29.90625 C40.9163419,30.786602 41.0961679,31.506372 41.5100919,32.0625 C41.6637609,36.358536 41.9523399,39.664561 42.1975919,42.03125 C42.4496979,44.464076 42.6883869,45.983295 42.7288419,46.46875 C42.7281908,46.4895782 42.7281908,46.5104218 42.7288419,46.53125 C42.8044119,47.09801 42.6822819,47.486928 42.5413419,47.6875 C42.4003999,47.888072 42.2606869,48 41.8225919,48 C41.6059249,48 41.3434849,47.8862 41.1350919,47.65625 C40.9266989,47.4263 40.8225919,47.10625 40.8225919,46.90625 C40.8181519,46.8428996 40.807688,46.7801161 40.7913419,46.71875 C40.7913419,46.71875 39.5173269,39.557589 38.8225919,32.3125 C38.7740211,31.7971444 38.3402265,31.404018 37.8225919,31.40625 L37.7288419,31.40625 C37.2000916,31.4052661 36.7619375,31.8160355 36.7288419,32.34375 C36.5255029,36.207198 36.6140359,41.252748 37.3225919,46.71875 C37.3219408,46.7395782 37.3219408,46.7604218 37.3225919,46.78125 C37.3892019,47.147594 37.3349919,47.531731 37.2288419,47.71875 C37.1226959,47.905769 37.0649529,48 36.6038419,48 C36.0760639,48 36.0474669,47.919369 35.9163419,47.75 C35.7991029,47.598567 35.6420399,47.207491 35.5100919,46.75 C35.5071919,46.73096 35.5129919,46.70657 35.5100919,46.6875 C34.3312159,38.889449 33.9163419,28.639426 33.9163419,23 L33.8225919,23 C33.8261797,22.7053621 33.6996532,22.4241363 33.4767834,22.2313841 C33.2539136,22.0386318 32.9573845,21.9539716 32.6663419,22 C32.3799673,22.0489724 32.1290434,22.2200569 31.9788419,22.46875 C31.5119059,23.215848 31.1896459,23.751479 31.0100919,24.09375 C31.0104249,24.093306 30.4588489,24.577772 29.7600919,25 C29.0613349,25.422228 28.1968149,25.900482 27.3225919,26.34375 C26.8197349,26.59872 26.3851229,26.782167 25.9163419,27 C25.8475989,26.680038 25.7336569,26.360279 25.5413419,26.0625 C26.0182989,25.774044 26.4607019,25.513064 27.3850919,24.9375 C28.0514389,24.522604 28.7173489,24.087778 29.2288419,23.75 C29.4845879,23.581111 29.7138799,23.438486 29.8850919,23.3125 C29.9707019,23.24951 30.0541279,23.196798 30.1350919,23.125 C30.1755719,23.0891 30.1963719,23.0445 30.2600919,22.96875 C30.3058919,22.9143 30.3898489,22.722433 30.4475919,22.5 L30.5100919,22.5 C30.5116919,22.492 30.6830869,21.90147 30.9475919,21.28125 C31.2120969,20.66103 31.5502379,19.906815 31.8850919,19.1875 C32.5547989,17.74887 33.2288419,16.4375 33.2288419,16.4375 C33.2407971,16.406784 33.2512265,16.3754959 33.2600919,16.34375 C33.2449519,16.38412 33.4735029,16.002053 34.2913419,15.6875 C35.1091809,15.372947 36.4557729,15.09375 38.4163419,15.09375 Z" id="Shape" fill="#899CA8"></path>
    </g>
</svg>