<?xml version="1.0" encoding="UTF-8"?>
<svg width="334px" height="35px" viewBox="0 0 334 35" version="1.1" xmlns="http://www.w3.org/2000/svg" xmlns:xlink="http://www.w3.org/1999/xlink">
    <!-- Generator: Sketch 39.1 (31720) - http://www.bohemiancoding.com/sketch -->
    <title>Untitled</title>
    <desc>Created with Sketch.</desc>
    <defs>
        <polygon id="path-1" points="0.9082 33 29.9292 33 29.9292 0.1303 0.9082 0.1303 0.9082 33"></polygon>
        <polygon id="path-3" points="25.487 26.7813 25.487 0.1303 0.1978 0.1303 0.1978 26.7813 25.487 26.7813"></polygon>
        <polygon id="path-5" points="5.42101086e-20 0.5428 5.42101086e-20 28.3368 51.1326 28.3368 51.1326 0.5428 0 0.5428"></polygon>
    </defs>
    <g id="Page-1" stroke="none" stroke-width="1" fill="none" fill-rule="evenodd">
        <g>
            <path d="M106.7969,15.5708 L106.7969,7.5738 L111.1279,7.5738 C114.5629,7.5738 116.2789,8.8768 116.2789,11.5428 C116.2789,14.2078 114.5629,15.5708 111.1869,15.5708 L106.7969,15.5708 Z M99.9849,1.6508 L99.9849,28.3028 L106.7969,28.3028 L106.7969,21.0178 L111.7789,21.0178 C120.1289,21.0178 123.5059,17.1688 123.5059,11.7788 C123.5059,6.0338 119.7149,1.6508 111.2449,1.6508 L99.9849,1.6508 Z" id="Fill-1" fill="#80BA27"></path>
            <path d="M133.3125,12.4902 L146.4015,12.4902 C146.4605,9.1732 144.0905,6.6842 140.3005,6.6842 C136.4515,6.6842 134.0825,8.6412 133.3125,12.4902 L133.3125,12.4902 Z M151.0205,25.6372 C148.4165,27.8292 145.0395,28.9542 140.8335,28.9542 C136.5095,28.9542 133.0745,27.6522 130.4105,25.1042 C127.8035,22.5582 126.5005,19.1822 126.5005,14.9782 C126.5005,11.0092 127.8035,7.6932 130.3515,5.0272 C132.8985,2.3622 136.3325,1.0002 140.5965,1.0002 C144.0905,1.0002 147.1115,2.1842 149.5395,4.4942 C151.9675,6.8042 153.2115,9.7662 153.2115,13.3782 C153.2115,14.8592 153.0925,16.1032 152.7975,17.0512 L133.5485,17.0512 C134.0825,21.0172 137.2795,23.2682 141.5445,23.2682 C144.5645,23.2682 147.0525,22.4402 149.0665,20.8402 L151.0205,25.6372 Z" id="Fill-3" fill="#80BA27"></path>
            <g id="Group-7" transform="translate(156.000000, 1.521000)">
                <mask id="mask-2" fill="white">
                    <use xlink:href="#path-1"></use>
                </mask>
                <g id="Clip-6"></g>
                <polygon id="Fill-5" fill="#FEFEFE" mask="url(#mask-2)" points="0.9082 26.7813 0.9082 0.1303 7.7202 0.1303 7.7202 20.4443 18.6772 20.4443 18.6772 0.1303 25.4872 0.1303 25.4872 20.4443 29.9292 20.4443 29.9292 33.0003 23.5332 33.0003 23.5332 26.7813"></polygon>
            </g>
            <polygon id="Fill-8" fill="#FEFEFE" points="196.2539 28.3023 189.4419 28.3023 189.4419 1.6513 196.2539 1.6513 196.2539 18.5303 208.6909 1.6513 215.5019 1.6513 215.5019 28.3023 208.6909 28.3023 208.6909 11.4233"></polygon>
            <path d="M245.1846,1.6509 L234.9396,14.3259 L246.4276,28.3019 L237.5436,28.3019 L227.0016,14.8589 L236.5956,1.6509 L245.1846,1.6509 Z M219.9546,28.3019 L226.7666,28.3019 L226.7666,1.6509 L219.9546,1.6509 L219.9546,28.3019 Z" id="Fill-10" fill="#FEFEFE"></path>
            <path d="M268.1622,28.3023 L268.1622,8.4623 L261.1142,8.4623 L260.9362,11.3043 C259.3962,25.8753 256.3162,28.7773 248.9132,28.8353 L248.3202,22.2013 C249.2092,22.2623 249.9792,22.0253 250.7502,21.4913 C252.3482,20.3073 253.9472,16.3403 254.3612,9.9443 L254.7762,1.6513 L274.9722,1.6513 L274.9722,28.3023 L268.1622,28.3023 Z" id="Fill-12" fill="#FEFEFE"></path>
            <path d="M285.1641,12.4902 L298.2531,12.4902 C298.3111,9.1732 295.9431,6.6842 292.1511,6.6842 C288.3031,6.6842 285.9351,8.6412 285.1641,12.4902 L285.1641,12.4902 Z M302.8731,25.6372 C300.2671,27.8292 296.8911,28.9542 292.6851,28.9542 C288.3611,28.9542 284.9261,27.6522 282.2621,25.1042 C279.6561,22.5582 278.3531,19.1822 278.3531,14.9782 C278.3531,11.0092 279.6561,7.6932 282.2031,5.0272 C284.7491,2.3622 288.1841,1.0002 292.4471,1.0002 C295.9431,1.0002 298.9641,2.1842 301.3921,4.4942 C303.8201,6.8042 305.0631,9.7662 305.0631,13.3782 C305.0631,14.8592 304.9451,16.1032 304.6481,17.0512 L285.4001,17.0512 C285.9351,21.0172 289.1311,23.2682 293.3951,23.2682 C296.4161,23.2682 298.9031,22.4402 300.9181,20.8402 L302.8731,25.6372 Z" id="Fill-14" fill="#FEFEFE"></path>
            <g id="Group-18" transform="translate(308.000000, 1.521000)">
                <mask id="mask-4" fill="white">
                    <use xlink:href="#path-3"></use>
                </mask>
                <g id="Clip-17"></g>
                <polygon id="Fill-16" fill="#FEFEFE" mask="url(#mask-4)" points="18.6768 26.7813 18.6768 16.5953 7.0088 16.5953 7.0088 26.7813 0.1978 26.7813 0.1978 0.1303 7.0088 0.1303 7.0088 10.1983 18.6768 10.1983 18.6768 0.1303 25.4878 0.1303 25.4878 26.7813"></polygon>
            </g>
            <g id="Group-21" transform="translate(0.000000, 0.521000)">
                <mask id="mask-6" fill="white">
                    <use xlink:href="#path-5"></use>
                </mask>
                <g id="Clip-20"></g>
                <path d="M45.7696,17.0708 L45.0846,17.9168 L45.0466,17.9728 C43.9526,19.4248 42.2536,20.3458 40.3106,20.3458 C38.6096,20.3458 37.1116,19.6428 36.0176,18.5008 L25.0566,6.0938 L24.1206,5.0368 L24.0466,4.9558 L24.0196,4.9188 L24.0076,4.9088 C21.4836,2.2308 17.8646,0.5428 13.8966,0.5428 C6.2166,0.5508 0.0036,6.7678 -0.0004,14.4408 C0.0036,22.1178 6.2166,28.3328 13.8966,28.3368 C18.2866,28.3368 22.2226,26.2858 24.7546,23.1028 L19.3906,17.0278 L18.6776,17.9168 L18.6326,17.9728 C17.5416,19.4248 15.8426,20.3458 13.8966,20.3458 C10.6356,20.3408 7.9956,17.6968 7.9886,14.4408 C7.9956,11.1828 10.6356,8.5358 13.8966,8.5358 C15.5926,8.5358 17.0836,9.2258 18.1736,10.3678 L19.0706,11.3828 L30.0976,23.8608 L30.1586,23.9278 L30.1856,23.9578 L30.2016,23.9708 C32.7226,26.6538 36.3376,28.3368 40.3106,28.3368 L40.3146,28.3368 C44.6826,28.3368 48.6016,26.3018 51.1326,23.1468 L45.7696,17.0708 Z" id="Fill-19" fill="#80BA27" mask="url(#mask-6)"></path>
            </g>
            <path d="M34.7754,12.332 L35.4584,11.483 L35.4964,11.428 C36.5914,9.981 38.2864,9.057 40.2334,9.057 C41.9344,9.057 43.4334,9.756 44.5234,10.9 L55.4904,23.309 L56.4244,24.371 L56.4984,24.449 L56.5274,24.478 L56.5414,24.492 C59.0584,27.174 62.6744,28.857 66.6494,28.857 C74.3264,28.853 80.5424,22.641 80.5454,14.961 C80.5424,7.289 74.3264,1.071 66.6494,1.066 C62.2634,1.064 58.3244,3.122 55.7874,6.303 L61.1544,12.378 L61.8734,11.483 L61.9124,11.428 C63.0074,9.981 64.7064,9.057 66.6494,9.057 C69.9104,9.057 72.5504,11.704 72.5564,14.961 C72.5504,18.224 69.9104,20.862 66.6494,20.867 C64.9554,20.867 63.4614,20.173 62.3704,19.036 L61.4724,18.019 L50.4494,5.541 L50.3894,5.477 L50.3574,5.446 L50.3414,5.43 C47.8244,2.752 44.2074,1.064 40.2334,1.066 C35.8654,1.066 31.9424,3.104 29.4104,6.258 L34.7754,12.332 Z" id="Fill-22" fill="#FEFEFE"></path>
        </g>
    </g>
</svg>