<?xml version="1.0" encoding="UTF-8"?>
<svg width="44px" height="42px" viewBox="0 0 44 42" version="1.1" xmlns="http://www.w3.org/2000/svg" xmlns:xlink="http://www.w3.org/1999/xlink">
    <!-- Generator: Sketch 39.1 (31720) - http://www.bohemiancoding.com/sketch -->
    <title>Slice 1</title>
    <desc>Created with Sketch.</desc>
    <defs></defs>
    <g id="Page-1" stroke="none" stroke-width="1" fill="none" fill-rule="evenodd">
        <path d="M1,0 L1,1 L1,5.96875 L1,6 C0.9359994,6.309157 0,10.838128 0,13.5 C0,14.87865 0.2699667,16.196585 1,17.25 L1,41 L1,42 L2,42 L27.8125,42 L28.21875,42 L36.8125,42 L37.21875,42 L42,42 L43,42 L43,41 L43,17.25 C43.730033,16.196585 44,14.87865 44,13.5 C44,10.867666 43.082814,6.46382 43,6.0625 C43.0006511,6.04167175 43.0006511,6.02082825 43,6 L43,5.96875 L43,1 L43,0 L42,0 L2,0 L1,0 Z M3,2 L41,2 L41,5 L36.1875,5 C36.0535094,4.97220659 35.9152406,4.97220659 35.78125,5 L29.21875,5 C29.1168791,4.97319069 29.0114124,4.96264401 28.90625,4.96875 C28.8745041,4.97761543 28.843216,4.98804483 28.8125,5 L22.21875,5 C22.1168791,4.97319069 22.0114124,4.96264401 21.90625,4.96875 C21.8745041,4.97761543 21.843216,4.98804483 21.8125,5 L15.21875,5 C15.1168791,4.97319069 15.0114124,4.96264401 14.90625,4.96875 C14.8745041,4.97761543 14.843216,4.98804483 14.8125,5 L8.3125,5 L8.21875,5 C8.11687915,4.97319069 8.01141238,4.96264401 7.90625,4.96875 C7.87450414,4.97761543 7.84321595,4.98804483 7.8125,5 L7.78125,5 L3,5 L3,2 Z M2.875,7 L7,7 L7,15.875 C6.3608474,16.552227 5.4959241,17 4.5,17 C3.7270121,17 3.2384549,16.804309 2.875,16.4375 C2.81357205,16.3175538 2.72853651,16.2112594 2.625,16.125 C2.2262833,15.549665 2,14.60635 2,13.5 C2,11.529031 2.7030945,7.91605 2.875,7 Z M9,7 L14,7 L14,15.875 C13.360847,16.552227 12.495924,17 11.5,17 C10.504076,17 9.639153,16.552227 9,15.875 L9,7 Z M16,7 L21,7 L21,15.875 C20.360847,16.552227 19.495924,17 18.5,17 C17.504076,17 16.639153,16.552227 16,15.875 L16,7 Z M23,7 L28,7 L28,15.90625 C27.362187,16.573925 26.492579,17 25.5,17 C24.504076,17 23.639153,16.552227 23,15.875 L23,7 Z M30,7 L35,7 L35,15.90625 C34.362187,16.573925 33.492579,17 32.5,17 C31.507421,17 30.637813,16.573925 30,15.90625 L30,7 Z M37,7 L41.125,7 C41.296905,7.91605 42,11.529031 42,13.5 C42,14.484881 41.820656,15.32435 41.5,15.90625 C41.2654748,16.0424136 41.0963,16.26798 41.03125,16.53125 C40.679721,16.839627 40.20777,17 39.5,17 C38.507421,17 37.637813,16.573925 37,15.90625 L37,7 Z M29,17.53125 C29.95979,18.371052 31.121509,19 32.5,19 C33.878491,19 35.04021,18.371052 36,17.53125 C36.95979,18.371052 38.121509,19 39.5,19 C40.031629,19 40.54329,18.907309 41,18.75 L41,40 L38,40 L38,23 L38,22 L37,22 L28,22 L27,22 L27,23 L27,40 L3,40 L3,18.75 C3.4567098,18.907309 3.9683706,19 4.5,19 C5.8755351,19 7.040967,18.398823 8,17.5625 C8.959033,18.398823 10.124465,19 11.5,19 C12.875535,19 14.040967,18.398823 15,17.5625 C15.959033,18.398823 17.124465,19 18.5,19 C19.875535,19 21.040967,18.398823 22,17.5625 C22.959033,18.398823 24.124465,19 25.5,19 C26.878491,19 28.04021,18.371052 29,17.53125 Z M6,22 L6,23 L6,36 L6,37 L7,37 L23,37 L24,37 L24,36 L24,23 L24,22 L23,22 L7,22 L6,22 Z M8,24 L22,24 L22,35 L8,35 L8,24 Z M29,24 L36,24 L36,40 L29,40 L29,24 Z" id="Shape" fill="#80BA27"></path>
    </g>
</svg>