<?xml version="1.0" encoding="UTF-8"?>
<svg width="30px" height="27px" viewBox="0 0 30 27" version="1.1" xmlns="http://www.w3.org/2000/svg" xmlns:xlink="http://www.w3.org/1999/xlink">
    <!-- Generator: Sketch 39.1 (31720) - http://www.bohemiancoding.com/sketch -->
    <title>Untitled</title>
    <desc>Created with Sketch.</desc>
    <defs></defs>
    <g id="Page-1" stroke="none" stroke-width="1" fill="none" fill-rule="evenodd">
        <path d="M10.5,0 L7.5,3 L3,3 C1.35,3 0,4.35 0,6 L0,24 C0,25.65 1.35,27 3,27 L27,27 C28.65,27 30,25.65 30,24 L30,6 C30,4.35 28.65,3 27,3 L22.5,3 L19.5,0 L10.5,0 Z M15,7.5 C19.2,7.5 22.5,10.8 22.5,15 C22.5,19.2 19.2,22.5 15,22.5 C10.8,22.5 7.5,19.2 7.5,15 C7.5,10.8 10.8,7.5 15,7.5 Z M15,9.75 C12.1005045,9.75 9.75,12.1005045 9.75,15 C9.75,17.8994955 12.1005045,20.25 15,20.25 C17.8994955,20.25 20.25,17.8994955 20.25,15 C20.25,12.1005045 17.8994955,9.75 15,9.75 Z" id="Shape" fill="#FFFFFF"></path>
    </g>
</svg>