<?xml version="1.0" encoding="UTF-8"?>
<svg width="60px" height="57px" viewBox="0 0 60 57" version="1.1" xmlns="http://www.w3.org/2000/svg" xmlns:xlink="http://www.w3.org/1999/xlink">
    <!-- Generator: Sketch 39.1 (31720) - http://www.bohemiancoding.com/sketch -->
    <title>Untitled</title>
    <desc>Created with Sketch.</desc>
    <defs></defs>
    <g id="Page-1" stroke="none" stroke-width="1" fill="none" fill-rule="evenodd">
        <path d="M30,0 L28.835705,2.98774677 L22.0827943,20.5650102 L3.22121604,21.6126617 L0,21.7678693 L2.52263907,23.7855684 L17.1539457,35.6977536 L12.3027167,53.8958475 L11.4877102,57 L14.1655886,55.2539142 L30,45.010211 L45.8344114,55.2539142 L48.5122898,57 L47.6972833,53.8958475 L42.8460543,35.6977536 L57.4773609,23.7855684 L60,21.7678693 L56.778784,21.6126617 L37.9172057,20.5650102 L31.164295,2.98774677 L30,0 Z M30,6.90673928 L35.8990944,22.2334922 L36.2095731,22.9707284 L37.0245796,23.0095303 L53.4411384,23.9019741 L40.6727038,34.262083 L40.0517464,34.7665078 L40.2457956,35.5425459 L44.4372574,51.3737236 L30.6597671,42.4880871 L30,42.0612662 L29.3402329,42.4880871 L15.5627426,51.3737236 L19.7542044,35.5425459 L19.9482536,34.7665078 L19.3272962,34.262083 L6.55886158,23.9019741 L22.9754204,23.0095303 L23.7904269,22.9707284 L24.1009056,22.2334922 L30,6.90673928 Z" id="Shape" fill="#899CA8"></path>
    </g>
</svg>