<?xml version="1.0" encoding="UTF-8"?>
<svg width="28px" height="20px" viewBox="0 0 28 20" version="1.1" xmlns="http://www.w3.org/2000/svg" xmlns:xlink="http://www.w3.org/1999/xlink">
    <!-- Generator: Sketch 39.1 (31720) - http://www.bohemiancoding.com/sketch -->
    <title>Untitled</title>
    <desc>Created with Sketch.</desc>
    <defs></defs>
    <g id="Page-1" stroke="none" stroke-width="1" fill="none" fill-rule="evenodd">
        <path d="M17.90625,0.96875 C17.8639549,0.976469003 17.8222016,0.986907327 17.78125,1 C17.4081406,1.06769005 17.1054058,1.34057348 16.9994841,1.70467946 C16.8935623,2.06878544 17.0026747,2.46147895 17.28125,2.71875 L23.5625,9 L2,9 C1.96876718,8.9985345 1.93748282,8.9985345 1.90625,9 C1.35396525,9.02588835 0.927236652,9.49459025 0.953125,10.046875 C0.979013348,10.5991597 1.44771525,11.0258883 2,11 L23.5625,11 L17.28125,17.28125 C17.0244382,17.5380292 16.9241318,17.9123144 17.0181181,18.2631056 C17.1121044,18.6138968 17.3861032,18.8878956 17.7368944,18.9818819 C18.0876856,19.0758682 18.4619708,18.9755618 18.71875,18.71875 L26.5625,10.84375 C26.6186311,10.8074116 26.6709764,10.7655354 26.71875,10.71875 C26.7413285,10.6886993 26.762195,10.6573997 26.78125,10.625 C26.8029942,10.6050979 26.8238479,10.5842442 26.84375,10.5625 C26.8814821,10.5034568 26.9129047,10.4406116 26.9375,10.375 C26.9486415,10.354537 26.9590645,10.333691 26.96875,10.3125 C26.9689128,10.302084 26.9689128,10.291666 26.96875,10.28125 C26.9807052,10.250534 26.9911346,10.2192459 27,10.1875 C27.016375,10.0839769 27.016375,9.97852313 27,9.875 C27.0006511,9.85417175 27.0006511,9.83332825 27,9.8125 C27.0001628,9.80208397 27.0001628,9.79166603 27,9.78125 C26.9903145,9.76005901 26.9798915,9.73921295 26.96875,9.71875 C26.9689128,9.70833397 26.9689128,9.69791603 26.96875,9.6875 C26.9590645,9.66630901 26.9486415,9.64546295 26.9375,9.625 C26.9376628,9.61458397 26.9376628,9.60416603 26.9375,9.59375 C26.9278145,9.57255901 26.9173915,9.55171295 26.90625,9.53125 C26.8960648,9.52060442 26.8856456,9.51018521 26.875,9.5 C26.8653145,9.47880901 26.8548915,9.45796295 26.84375,9.4375 C26.8074116,9.38136887 26.7655354,9.3290236 26.71875,9.28125 L26.6875,9.28125 C26.6675979,9.25950578 26.6467442,9.23865208 26.625,9.21875 L18.71875,1.28125 C18.5098355,1.05849277 18.2105909,0.943398678 17.90625,0.96875 Z" id="Shape" fill="#80BA27"></path>
    </g>
</svg>