<?xml version="1.0" encoding="UTF-8"?>
<svg width="28px" height="20px" viewBox="0 0 28 20" version="1.1" xmlns="http://www.w3.org/2000/svg" xmlns:xlink="http://www.w3.org/1999/xlink">
    <!-- Generator: Sketch 39.1 (31720) - http://www.bohemiancoding.com/sketch -->
    <title>Untitled</title>
    <desc>Created with Sketch.</desc>
    <defs></defs>
    <g id="Page-1" stroke="none" stroke-width="1" fill="none" fill-rule="evenodd">
        <path d="M17.9419621,0.96875 C17.899667,0.976469003 17.8579137,0.986907327 17.8169621,1 C17.4438527,1.06769005 17.1411179,1.34057348 17.0351962,1.70467946 C16.9292745,2.06878544 17.0383868,2.46147895 17.3169621,2.71875 L23.5982121,9 L2.03571211,9 C2.00447929,8.9985345 1.97319492,8.9985345 1.94196211,9 C1.38967736,9.02588835 0.962948759,9.49459025 0.988837106,10.046875 C1.01472545,10.5991597 1.48342736,11.0258883 2.03571211,11 L23.5982121,11 L17.3169621,17.28125 C17.0601503,17.5380292 16.9598439,17.9123144 17.0538302,18.2631056 C17.1478165,18.6138968 17.4218154,18.8878956 17.7726065,18.9818819 C18.1233977,19.0758682 18.4976829,18.9755618 18.7544621,18.71875 L26.5982121,10.84375 C26.6543432,10.8074116 26.7066885,10.7655354 26.7544621,10.71875 C26.7770406,10.6886993 26.7979071,10.6573997 26.8169621,10.625 C26.8387063,10.6050979 26.85956,10.5842442 26.8794621,10.5625 C26.9171942,10.5034568 26.9486168,10.4406116 26.9732121,10.375 C26.9843536,10.354537 26.9947767,10.333691 27.0044621,10.3125 C27.0046249,10.302084 27.0046249,10.291666 27.0044621,10.28125 C27.0164173,10.250534 27.0268467,10.2192459 27.0357121,10.1875 C27.0520871,10.0839769 27.0520871,9.97852313 27.0357121,9.875 C27.0363632,9.85417175 27.0363632,9.83332825 27.0357121,9.8125 C27.0358749,9.80208397 27.0358749,9.79166603 27.0357121,9.78125 C27.0260267,9.76005901 27.0156036,9.73921295 27.0044621,9.71875 C27.0046249,9.70833397 27.0046249,9.69791603 27.0044621,9.6875 C26.9947767,9.66630901 26.9843536,9.64546295 26.9732121,9.625 C26.9733749,9.61458397 26.9733749,9.60416603 26.9732121,9.59375 C26.9635267,9.57255901 26.9531036,9.55171295 26.9419621,9.53125 C26.9317769,9.52060442 26.9213577,9.51018521 26.9107121,9.5 C26.9010267,9.47880901 26.8906036,9.45796295 26.8794621,9.4375 C26.8431237,9.38136887 26.8012475,9.3290236 26.7544621,9.28125 L26.7232121,9.28125 C26.70331,9.25950578 26.6824563,9.23865208 26.6607121,9.21875 L18.7544621,1.28125 C18.5455476,1.05849277 18.246303,0.943398678 17.9419621,0.96875 Z" id="Shape" fill="#80BA27" transform="translate(14.017856, 9.990914) scale(-1, 1) translate(-14.017856, -9.990914) "></path>
    </g>
</svg>