<?xml version="1.0" encoding="UTF-8"?>
<svg width="47px" height="47px" viewBox="0 0 47 47" version="1.1" xmlns="http://www.w3.org/2000/svg" xmlns:xlink="http://www.w3.org/1999/xlink">
    <!-- Generator: Sketch 39.1 (31720) - http://www.bohemiancoding.com/sketch -->
    <title>Untitled 3</title>
    <desc>Created with Sketch.</desc>
    <defs></defs>
    <g id="Page-1" stroke="none" stroke-width="1" fill="none" fill-rule="evenodd">
        <path d="M10.9064073,0.00445851291 C10.8641122,0.0121775156 10.822359,0.0226158395 10.7814073,0.0357085129 C10.3157788,0.139986775 9.98867122,0.558684481 10.0001573,1.03570851 L10.0001573,4.03570851 C9.96892449,4.03424301 9.93764013,4.03424301 9.90640731,4.03570851 C9.87517446,4.03424447 9.84389016,4.03424447 9.81265731,4.03570851 C9.45539172,4.06920216 9.14313335,4.29075049 8.9935069,4.61689839 C8.84388046,4.9430463 8.87961776,5.32424414 9.0872569,5.61689839 C9.29489605,5.90955265 9.64289172,6.06920216 10.0001573,6.03570851 L10.8126573,6.03570851 L11.2189073,6.03570851 L12.0001573,6.03570851 C12.3607932,6.0408088 12.6962387,5.85133322 12.878045,5.53983566 C13.0598514,5.22833811 13.0598514,4.84307892 12.878045,4.53158136 C12.6962387,4.22008381 12.3607932,4.03060822 12.0001573,4.03570851 L12.0001573,1.03570851 C12.0104049,0.748042742 11.8962081,0.469909736 11.6867727,0.27244214 C11.4773374,0.0749745437 11.1929735,-0.0226782474 10.9064073,0.00445851291 Z M22.9064073,0.00445851291 C22.8641122,0.0121775156 22.822359,0.0226158395 22.7814073,0.0357085129 C22.3157788,0.139986775 21.9886712,0.558684481 22.0001573,1.03570851 L22.0001573,4.03570851 C21.9689245,4.03424301 21.9376401,4.03424301 21.9064073,4.03570851 C21.3541226,4.06159686 20.927394,4.53029876 20.9532823,5.08258351 C20.9791707,5.63486826 21.4478726,6.06159686 22.0001573,6.03570851 L22.8126573,6.03570851 L23.2189073,6.03570851 L24.0001573,6.03570851 C24.3607932,6.0408088 24.6962387,5.85133322 24.878045,5.53983566 C25.0598514,5.22833811 25.0598514,4.84307892 24.878045,4.53158136 C24.6962387,4.22008381 24.3607932,4.03060822 24.0001573,4.03570851 L24.0001573,1.03570851 C24.0104049,0.748042742 23.8962081,0.469909736 23.6867727,0.27244214 C23.4773374,0.0749745437 23.1929735,-0.0226782474 22.9064073,0.00445851291 L22.9064073,0.00445851291 Z M34.9064073,0.00445851291 C34.8641122,0.0121775156 34.822359,0.0226158395 34.7814073,0.0357085129 C34.3157788,0.139986775 33.9886712,0.558684481 34.0001573,1.03570851 L34.0001573,4.03570851 C33.9689245,4.03424301 33.9376401,4.03424301 33.9064073,4.03570851 C33.8751745,4.03424447 33.8438902,4.03424447 33.8126573,4.03570851 C33.2603726,4.08748521 32.8546306,4.57717376 32.9064073,5.12945851 C32.958184,5.68174326 33.4478726,6.08748521 34.0001573,6.03570851 L36.0001573,6.03570851 C36.3607932,6.0408088 36.6962387,5.85133322 36.878045,5.53983566 C37.0598514,5.22833811 37.0598514,4.84307892 36.878045,4.53158136 C36.6962387,4.22008381 36.3607932,4.03060822 36.0001573,4.03570851 L36.0001573,1.03570851 C36.0104049,0.748042742 35.8962081,0.469909736 35.6867727,0.27244214 C35.4773374,0.0749745437 35.1929735,-0.0226782474 34.9064073,0.00445851291 L34.9064073,0.00445851291 Z M0.812657308,1.03570851 C0.334575325,1.12693006 -0.00841909313,1.54907703 0.000157307951,2.03570851 L0.000157307951,29.0357085 C0.000212525856,29.5879704 0.447895432,30.0356533 1.00015731,30.0357085 L18.0001573,30.0357085 L18.0001573,44.0357085 L16.0001573,44.0357085 C15.9689245,44.034243 15.9376401,44.034243 15.9064073,44.0357085 C15.3541226,44.0615969 14.927394,44.5302988 14.9532823,45.0825835 C14.9791707,45.6348683 15.4478726,46.0615969 16.0001573,46.0357085 L18.8439073,46.0357085 L27.0939073,46.0357085 L30.0001573,46.0357085 C30.3607932,46.0408088 30.6962387,45.8513332 30.878045,45.5398357 C31.0598514,45.2283381 31.0598514,44.8430789 30.878045,44.5315814 C30.6962387,44.2200838 30.3607932,44.0306082 30.0001573,44.0357085 L28.0001573,44.0357085 L28.0001573,30.0357085 L45.0001573,30.0357085 C45.5524192,30.0356533 46.0001021,29.5879704 46.0001573,29.0357085 L46.0001573,2.03570851 C46.0001021,1.48344664 45.5524192,1.03576373 45.0001573,1.03570851 L37.0001573,1.03570851 L37.0001573,3.03570851 L44.0001573,3.03570851 L44.0001573,28.0357085 L2.00015731,28.0357085 L2.00015731,3.03570851 L9.00015731,3.03570851 L9.00015731,1.03570851 L1.00015731,1.03570851 C0.96892449,1.03424301 0.937640126,1.03424301 0.906407308,1.03570851 C0.87517449,1.03424301 0.843890126,1.03424301 0.812657308,1.03570851 Z M13.0001573,1.03570851 L13.0001573,3.03570851 L21.0001573,3.03570851 L21.0001573,1.03570851 L13.0001573,1.03570851 Z M25.0001573,1.03570851 L25.0001573,3.03570851 L33.0001573,3.03570851 L33.0001573,1.03570851 L25.0001573,1.03570851 Z M20.0001573,30.0357085 L26.0001573,30.0357085 L26.0001573,44.0357085 L20.0001573,44.0357085 L20.0001573,30.0357085 Z" id="Shape" fill="#899CA8"></path>
    </g>
</svg>