<?xml version="1.0" encoding="UTF-8"?>
<svg width="63px" height="48px" viewBox="0 0 63 48" version="1.1" xmlns="http://www.w3.org/2000/svg" xmlns:xlink="http://www.w3.org/1999/xlink">
    <!-- Generator: Sketch 39.1 (31720) - http://www.bohemiancoding.com/sketch -->
    <title>Slice 1</title>
    <desc>Created with Sketch.</desc>
    <defs></defs>
    <g id="Page-1" stroke="none" stroke-width="1" fill="none" fill-rule="evenodd">
        <path d="M19.2684419,0.00138832626 C19.0647464,0.0463300636 18.8753647,0.141271901 18.717289,0.277695236 L5.84393152,10.1852716 C5.83052045,10.1981367 5.81739456,10.2112974 5.80456345,10.224744 C5.79144157,10.2245384 5.77831728,10.2245384 5.76519539,10.224744 C5.66489667,10.2777968 5.57220066,10.3441837 5.48961893,10.4221061 C5.47620786,10.4349712 5.46308197,10.4481319 5.45025086,10.4615785 C5.42355492,10.4738123 5.39729351,10.4869779 5.37151473,10.5010509 C5.3713097,10.5142076 5.3713097,10.5273666 5.37151473,10.5405233 C5.3281002,10.5899845 5.28861165,10.6427754 5.25341054,10.698413 C5.23937469,10.7242601 5.22624399,10.7505911 5.21404247,10.7773578 C5.2006314,10.7902229 5.18750551,10.8033836 5.1746744,10.8168302 C5.14294546,10.8802828 5.11660686,10.9463038 5.09593827,11.0141923 L0.135561996,20.9217686 C-0.110046788,21.4088626 -0.01587122,21.9990306 0.369051782,22.3849738 C0.753974784,22.7709171 1.34258252,22.8653423 1.82838882,22.6190825 L5.05657021,21.0007135 L5.05657021,46.7367285 C5.05663977,47.4343 5.62062089,47.9997761 6.31634831,47.9998458 L30.1733961,47.9998458 L43.912851,47.9998458 L44.1096914,47.9998458 C44.1228133,48.0000514 44.1359375,48.0000514 44.1490594,47.9998458 C44.2288669,47.9942376 44.3079602,47.9810205 44.3852678,47.9603734 C44.4252606,47.9491753 44.4646767,47.9360018 44.503372,47.920901 C44.6618755,47.8713371 44.8090453,47.7908498 44.9364207,47.6840665 C44.9638136,47.6589278 44.9900847,47.6325872 45.0151569,47.6051217 C45.0425498,47.579983 45.0688208,47.5536423 45.093893,47.5261768 L45.1726291,47.4077596 C45.200022,47.3826209 45.2262931,47.3562803 45.2513653,47.3288147 L55.1721178,34.8950038 C55.3507189,34.6708644 55.4479078,34.3924459 55.4476943,34.1055555 L55.4476943,22.0269963 L62.6520503,14.8035442 C63.0485574,14.3864646 63.1133342,13.7532175 62.8095226,13.26412 L55.4476943,0.988198719 C55.4028714,0.783963246 55.3081805,0.594079572 55.1721178,0.435584899 C55.1599163,0.408818192 55.1467856,0.38248718 55.1327498,0.356640068 C55.1196279,0.35643449 55.1065036,0.35643449 55.0933817,0.356640068 C55.0811802,0.32987336 55.0680495,0.303542348 55.0540136,0.277695236 C55.0408917,0.277489659 55.0277674,0.277489659 55.0146456,0.277695236 C54.9895734,0.250229732 54.9633023,0.22388907 54.9359094,0.198750405 C54.8490789,0.148420877 54.7565652,0.108667054 54.660333,0.0803331577 C54.6345542,0.0662601077 54.6082928,0.0530946018 54.5815968,0.040860742 C54.568475,0.0406551645 54.5553507,0.0406551645 54.5422288,0.040860742 C54.51645,0.026787692 54.4901886,0.0136221861 54.4634926,0.00138832626 C54.4503708,0.00118274877 54.4372465,0.00118274877 54.4241246,0.00138832626 C54.3978856,0.000565865683 54.3716274,0.000565865683 54.3453884,0.00138832626 C54.3322666,0.00118274877 54.3191423,0.00118274877 54.3060204,0.00138832626 C54.2797814,0.000565865683 54.2535232,0.000565865683 54.2272842,0.00138832626 C54.2141624,0.00118274877 54.2010381,0.00118274877 54.1879162,0.00138832626 L19.5046503,0.00138832626 C19.4653039,-0.000462775418 19.4258925,-0.000462775418 19.3865461,0.00138832626 C19.3471997,-0.000462775418 19.3077883,-0.000462775418 19.2684419,0.00138832626 Z M19.898331,2.52762293 L51.1172071,2.52762293 L43.5585384,10.1063267 L10.0169465,10.1063267 L19.898331,2.52762293 Z M53.9517078,3.31707125 L60.1718622,13.6588442 L51.9045684,21.9480515 L45.684414,11.6062785 L53.9517078,3.31707125 Z M7.57612641,12.6325614 L42.8499133,12.6325614 L42.8499133,45.4736112 L30.1733961,45.4736112 L7.57612641,45.4736112 L7.57612641,19.1060375 C7.57940996,19.0534591 7.57940996,19.0007263 7.57612641,18.9481479 L7.57612641,12.6325614 Z M45.3694695,15.8692994 L50.6054222,24.6321757 C50.7993691,24.9695659 51.1376735,25.1984108 51.5223119,25.2524029 C51.9069504,25.306395 52.2949268,25.1794989 52.5738255,24.9084826 L52.9281381,24.5532309 L52.9281381,33.6713589 L45.3694695,43.1447387 L45.3694695,15.8692994 Z M5.05657021,16.7376926 L5.05657021,18.1586995 L4.11173663,18.6323685 L5.05657021,16.7376926 Z M18.5598167,17.6850306 C17.8640605,17.7831306 17.3793543,18.4281733 17.477195,19.1257737 C17.5750357,19.8233741 18.2183731,20.3093652 18.9141293,20.2112652 L31.5119103,20.2112652 C31.9662316,20.2177074 32.3888184,19.9783775 32.6178541,19.5849196 C32.8468897,19.1914616 32.8468897,18.7048341 32.6178541,18.3113761 C32.3888184,17.9179182 31.9662316,17.6785883 31.5119103,17.6850306 L18.9141293,17.6850306 C18.8747829,17.6831795 18.8353716,17.6831795 18.7960251,17.6850306 C18.7566787,17.6831813 18.7172674,17.6831813 18.6779209,17.6850306 C18.6385743,17.6831874 18.5991633,17.6831874 18.5598167,17.6850306 Z" id="Shape" fill="#899CA8"></path>
    </g>
</svg>