<?xml version="1.0" encoding="UTF-8"?>
<svg width="18px" height="18px" viewBox="0 0 18 18" version="1.1" xmlns="http://www.w3.org/2000/svg" xmlns:xlink="http://www.w3.org/1999/xlink">
    <!-- Generator: Sketch 39.1 (31720) - http://www.bohemiancoding.com/sketch -->
    <title>Slice 1</title>
    <desc>Created with Sketch.</desc>
    <defs></defs>
    <g id="Page-1" stroke="none" stroke-width="1" fill="none" fill-rule="evenodd">
        <path d="M2,0 C0.9069372,0 0,0.9069372 0,2 L0,12 L0,13 L0,14 L0,16 C0,17.093063 0.9069372,18 2,18 L8,18 C9.093063,18 10,17.093063 10,16 L10,14 L16,14 C17.093063,14 18,13.093063 18,12 L18,2 C18,0.9069372 17.093063,0 16,0 L2,0 Z M2,2 L4,2 L4,4 L2,4 L2,2 Z M6,2 L8,2 L8,4 L6,4 L6,2 Z M10,2 L12,2 L12,4 L10,4 L10,2 Z M14,2 L16,2 L16,4 L14,4 L14,2 Z M2,6 L4,6 L4,8 L2,8 L2,6 Z M6,6 L8,6 L8,8 L6,8 L6,6 Z M10,6 L12,6 L12,8 L10,8 L10,6 Z M14,6 L16,6 L16,8 L14,8 L14,6 Z M2,10 L4,10 L4,12 L2,12 L2,10 Z M6,10 L8,10 L8,12 L6,12 L6,10 Z M10,10 L12,10 L12,12 L10,12 L10,10 Z M14,10 L16,10 L16,12 L14,12 L14,10 Z M2,14 L4,14 L4,16 L2,16 L2,14 Z M6,14 L8,14 L8,16 L6,16 L6,14 Z" id="Shape" fill="#7BB736"></path>
    </g>
</svg>