<?xml version="1.0" encoding="UTF-8"?>
<svg width="20px" height="18px" viewBox="0 0 20 18" version="1.1" xmlns="http://www.w3.org/2000/svg" xmlns:xlink="http://www.w3.org/1999/xlink">
    <!-- Generator: Sketch 39.1 (31720) - http://www.bohemiancoding.com/sketch -->
    <title>Untitled</title>
    <desc>Created with Sketch.</desc>
    <defs></defs>
    <g id="Page-1" stroke="none" stroke-width="1" fill="none" fill-rule="evenodd">
        <path d="M3,0 C2.448,0 2,0.448 2,1 L2,2 L0,2 L0,4 L2,4 L2,5 C2,5.552 2.448,6 3,6 L4,6 C4.552,6 5,5.552 5,5 L5,1 C5,0.448 4.552,0 4,0 L3,0 Z M6,2 L6,4 L20,4 L20,2 L6,2 Z M15,6 C14.448,6 14,6.448 14,7 L14,8 L0,8 L0,10 L14,10 L14,11 C14,11.552 14.448,12 15,12 L16,12 C16.552,12 17,11.552 17,11 L17,7 C17,6.448 16.552,6 16,6 L15,6 Z M18,8 L18,10 L20,10 L20,8 L18,8 Z M8,12 C7.448,12 7,12.448 7,13 L7,14 L0,14 L0,16 L7,16 L7,17 C7,17.552 7.448,18 8,18 L9,18 C9.552,18 10,17.552 10,17 L10,13 C10,12.448 9.552,12 9,12 L8,12 Z M11,14 L11,16 L20,16 L20,14 L11,14 Z" id="Shape" fill="#4B5D67"></path>
    </g>
</svg>