<?xml version="1.0" encoding="UTF-8"?>
<svg width="17px" height="11px" viewBox="0 0 17 11" version="1.1" xmlns="http://www.w3.org/2000/svg" xmlns:xlink="http://www.w3.org/1999/xlink">
    <!-- Generator: Sketch 39.1 (31720) - http://www.bohemiancoding.com/sketch -->
    <title>Untitled</title>
    <desc>Created with Sketch.</desc>
    <defs></defs>
    <g id="Page-1" stroke="none" stroke-width="1" fill="none" fill-rule="evenodd">
        <path d="M8.05545899,0 C3.67650053,0 0.310176224,4.79776786 0.164210942,5.03348214 C-0.0547369807,5.34776786 -0.0547369807,5.65223214 0.164210942,5.96651786 C0.310176224,6.20223214 3.67650053,11 8.05545899,11 C12.4344174,11 15.8007417,6.20223214 15.946707,5.96651786 C16.165655,5.65223214 16.165655,5.34776786 15.946707,5.03348214 C15.8007417,4.79776786 12.4344174,0 8.05545899,0 Z M8.05545899,1.57142857 C10.0989729,1.57142857 11.704591,3.3 11.704591,5.5 C11.704591,7.7 10.0989729,9.42857143 8.05545899,9.42857143 C6.01194504,9.42857143 4.40632694,7.7 4.40632694,5.5 C4.40632694,3.3 6.01194504,1.57142857 8.05545899,1.57142857 Z M8.05545899,3.53571429 C7.04777891,3.53571429 6.23089296,4.41515486 6.23089296,5.5 C6.23089296,6.58484514 7.04777891,7.46428571 8.05545899,7.46428571 C9.06313907,7.46428571 9.88002501,6.58484514 9.88002501,5.5 C9.88002501,4.41515486 9.06313907,3.53571429 8.05545899,3.53571429 Z" id="Shape" fill="#899CA8"></path>
    </g>
</svg>