<?xml version="1.0" encoding="UTF-8"?>
<svg width="88px" height="88px" viewBox="0 0 88 88" version="1.1" xmlns="http://www.w3.org/2000/svg" xmlns:xlink="http://www.w3.org/1999/xlink">
    <!-- Generator: Sketch 39.1 (31720) - http://www.bohemiancoding.com/sketch -->
    <title>Slice 1</title>
    <desc>Created with Sketch.</desc>
    <defs></defs>
    <g id="Page-1" stroke="none" stroke-width="1" fill="none" fill-rule="evenodd">
        <path d="M44,0 C19.72316,0 0,19.72316 0,44 C0,68.27684 19.72316,88 44,88 C68.27684,88 88,68.27684 88,44 C88,19.72316 68.27684,0 44,0 Z M44,4 C66.11508,4 84,21.88492 84,44 C84,66.11508 66.11508,84 44,84 C21.88492,84 4,66.11508 4,44 C4,21.88492 21.88492,4 44,4 Z M62.125,22.9375 L40.25,56.9375 L25.5625,43.6875 L22.875,46.6875 L39.25,61.5 L41,63.0625 L42.25,61.0625 L65.5,25.0625 L62.125,22.9375 Z" id="Shape" fill="#7BB637"></path>
    </g>
</svg>