<?xml version="1.0" encoding="UTF-8"?>
<svg width="13px" height="15px" viewBox="0 0 13 15" version="1.1" xmlns="http://www.w3.org/2000/svg" xmlns:xlink="http://www.w3.org/1999/xlink">
    <!-- Generator: Sketch 39.1 (31720) - http://www.bohemiancoding.com/sketch -->
    <title>Slice 1</title>
    <desc>Created with Sketch.</desc>
    <defs></defs>
    <g id="Page-1" stroke="none" stroke-width="1" fill="none" fill-rule="evenodd">
        <path d="M1.52941176,0 C0.688235294,0 0,0.675 0,1.5 L0,11.25 L1.52941176,11.25 L1.52941176,1.5 L9.17647059,1.5 L9.17647059,0 L1.52941176,0 Z M4.58823529,3 C3.74705882,3 3.05882353,3.675 3.05882353,4.5 L3.05882353,13.5 C3.05882353,14.325 3.74705882,15 4.58823529,15 L11.4705882,15 C12.3117647,15 13,14.325 13,13.5 L13,4.5 C13,3.675 12.3117647,3 11.4705882,3 L4.58823529,3 Z M4.58823529,4.5 L11.4705882,4.5 L11.4705882,13.5 L4.58823529,13.5 L4.58823529,4.5 Z" id="Shape" fill="#7BB736"></path>
    </g>
</svg>