<?xml version="1.0" encoding="UTF-8"?>
<svg width="20px" height="20px" viewBox="0 0 20 20" version="1.1" xmlns="http://www.w3.org/2000/svg" xmlns:xlink="http://www.w3.org/1999/xlink">
    <!-- Generator: Sketch 39.1 (31720) - http://www.bohemiancoding.com/sketch -->
    <title>Untitled</title>
    <desc>Created with Sketch.</desc>
    <defs></defs>
    <g id="Page-1" stroke="none" stroke-width="1" fill="none" fill-rule="evenodd">
        <path d="M10.0470958,0 C4.52119309,0 0,4.5 0,10 C0,15.5 4.52119309,20 10.0470958,20 C15.2715856,20 19.4976452,16.1 20,11 L17.9905808,11 C17.4882261,14.9 14.0659341,18 10.0470958,18 C5.62637363,18 2.00941915,14.4 2.00941915,10 C2.00941915,5.6 5.62637363,2 10.0470958,2 C11.4536892,2 12.7660911,2.4 13.9717425,3 L15.4788069,1.5 C13.8712716,0.6 12.0565149,0 10.0470958,0 Z M18.5871272,2.875 L9.23076923,11.78125 L5.52590267,8.09375 L4.11302983,9.5 L8.5400314,13.90625 L9.23076923,14.59375 L9.95290424,13.90625 L20,4.3125 L18.5871272,2.875 Z" id="Shape" fill="#E82282"></path>
    </g>
</svg>