<?xml version="1.0" encoding="UTF-8"?>
<svg width="40px" height="40px" viewBox="0 0 40 40" version="1.1" xmlns="http://www.w3.org/2000/svg" xmlns:xlink="http://www.w3.org/1999/xlink">
    <!-- Generator: Sketch 39.1 (31720) - http://www.bohemiancoding.com/sketch -->
    <title>Slice 1</title>
    <desc>Created with Sketch.</desc>
    <defs></defs>
    <g id="Page-1" stroke="none" stroke-width="1" fill="none" fill-rule="evenodd">
        <path d="M20.0941915,0 C9.04238619,0 0,9 0,20 C0,31 9.04238619,40 20.0941915,40 C30.5431711,40 38.9952904,32.2 40,22 L35.9811617,22 C34.9764521,29.8 28.1318681,36 20.0941915,36 C11.2527473,36 4.0188383,28.8 4.0188383,20 C4.0188383,11.2 11.2527473,4 20.0941915,4 C22.9073783,4 25.5321821,4.8 27.9434851,6 L30.9576138,3 C27.7425432,1.2 24.1130298,0 20.0941915,0 Z M37.1742543,5.75 L18.4615385,23.5625 L11.0518053,16.1875 L8.22605965,19 L17.0800628,27.8125 L18.4615385,29.1875 L19.9058085,27.8125 L40,8.625 L37.1742543,5.75 Z" id="Shape" fill="#7BB736"></path>
    </g>
</svg>