<?xml version="1.0" encoding="UTF-8"?>
<svg width="15px" height="13px" viewBox="0 0 15 13" version="1.1" xmlns="http://www.w3.org/2000/svg" xmlns:xlink="http://www.w3.org/1999/xlink">
    <!-- Generator: Sketch 39.1 (31720) - http://www.bohemiancoding.com/sketch -->
    <title>Slice 1</title>
    <desc>Created with Sketch.</desc>
    <defs></defs>
    <g id="Page-1" stroke="none" stroke-width="1" fill="none" fill-rule="evenodd">
        <path d="M14.5965282,0 L2.18947923,3.82352941 L2.18947923,8.41176471 L3.35264007,8.77022059 L3.23860469,9.10477941 L3.23860469,9.12867647 C2.92216458,10.3444082 3.59195511,11.6367359 4.76667873,11.9724265 L5.56492637,12.2113971 C6.72520658,12.5429605 7.9813962,11.8411594 8.3017754,10.6102941 L8.27896832,10.6102941 L8.37019663,10.3235294 L14.5965282,12.2352941 L14.5965282,0 Z M0,3.82352941 L0,8.41176471 L1.45965282,8.41176471 L1.45965282,3.82352941 L0,3.82352941 Z M4.74387166,9.20036765 L6.97896503,9.89338235 L6.88773673,10.1801471 L6.88773673,10.2040441 C6.77022008,10.6555318 6.39798453,10.8570395 5.95264665,10.7297794 L5.15439901,10.5147059 C4.72350454,10.3915729 4.53118762,10.0015477 4.65264336,9.53492647 L4.62983628,9.53492647 L4.74387166,9.20036765 Z" id="Shape" fill="#899CA8"></path>
    </g>
</svg>