<?xml version="1.0" encoding="UTF-8"?>
<svg width="46px" height="44px" viewBox="0 0 46 44" version="1.1" xmlns="http://www.w3.org/2000/svg" xmlns:xlink="http://www.w3.org/1999/xlink">
    <!-- Generator: Sketch 39.1 (31720) - http://www.bohemiancoding.com/sketch -->
    <title>Slice 1</title>
    <desc>Created with Sketch.</desc>
    <defs></defs>
    <g id="Page-1" stroke="none" stroke-width="1" fill="none" fill-rule="evenodd">
        <path d="M22.9296875,0 C10.2980455,0 0,8.8514565 0,19.9296875 C0,26.3612465 3.5216777,31.9584745 8.9335935,35.6152345 C8.9248935,35.8300795 8.9406935,36.1793515 8.6582035,37.2246095 C8.3081445,38.5198265 7.602204,40.3427005 6.1679687,42.3984375 L5.1484375,43.8593755 L6.9296875,43.8593755 C13.1006135,43.8593755 16.6712385,39.8372725 17.2246095,39.1914065 C19.0639865,39.6228545 20.9546125,39.8593745 22.9296875,39.8593755 C35.5613295,39.8593755 45.8593755,31.0079185 45.8593755,19.9296875 C45.8593755,8.8514565 35.5613295,0 22.9296875,0 Z M22.9296875,1.859375 C34.6980455,1.859375 43.9999995,10.0079185 43.9999995,19.9296875 C43.9999995,29.8514565 34.6980455,38.0000005 22.9296875,37.9999995 C20.8886905,37.9999995 18.9697815,37.8047535 17.1660155,37.3300785 L16.5839845,37.1777345 L16.2070315,37.6445315 C16.2070315,37.6445315 13.3205595,40.9022545 8.7109375,41.6874995 C9.5476585,40.1786685 10.1633745,38.7738345 10.4511715,37.7089845 C10.8511135,36.2292015 10.8593745,35.2304685 10.8593755,35.2304685 L10.8593755,34.7187495 L10.4277345,34.4453125 C5.1491031,31.0861835 1.859375,25.8855025 1.859375,19.9296875 C1.859375,10.0079185 11.1613295,1.859375 22.9296875,1.859375 Z M12.9296875,17.9296875 C11.825118,17.9296875 10.9296875,18.825118 10.9296875,19.9296875 C10.9296875,21.034257 11.825118,21.9296875 12.9296875,21.9296875 C14.034257,21.9296875 14.9296875,21.034257 14.9296875,19.9296875 C14.9296875,18.825118 14.034257,17.9296875 12.9296875,17.9296875 Z M22.9296875,17.9296875 C21.825118,17.9296875 20.9296875,18.825118 20.9296875,19.9296875 C20.9296875,21.034257 21.825118,21.9296875 22.9296875,21.9296875 C24.034257,21.9296875 24.9296875,21.034257 24.9296875,19.9296875 C24.9296875,18.825118 24.034257,17.9296875 22.9296875,17.9296875 Z M32.9296875,17.9296875 C31.825118,17.9296875 30.9296875,18.825118 30.9296875,19.9296875 C30.9296875,21.034257 31.825118,21.9296875 32.9296875,21.9296875 C34.034257,21.9296875 34.9296875,21.034257 34.9296875,19.9296875 C34.9296875,18.825118 34.034257,17.9296875 32.9296875,17.9296875 Z" id="Shape" fill="#899CA8"></path>
    </g>
</svg>