<?xml version="1.0" encoding="UTF-8"?>
<svg width="38px" height="41px" viewBox="0 0 38 41" version="1.1" xmlns="http://www.w3.org/2000/svg" xmlns:xlink="http://www.w3.org/1999/xlink">
    <!-- Generator: Sketch 39.1 (31720) - http://www.bohemiancoding.com/sketch -->
    <title>Slice 1</title>
    <desc>Created with Sketch.</desc>
    <defs></defs>
    <g id="Page-1" stroke="none" stroke-width="1" fill="none" fill-rule="evenodd">
        <path d="M23.933,28.137 C23.787,26.525 23.843,25.4 23.843,23.927 C24.573,23.543 25.881,21.101 26.102,19.039 C26.676,18.992 27.581,18.432 27.846,16.221 C27.989,15.034 27.421,14.366 27.075,14.156 C28.009,11.347 29.949,2.657 23.487,1.759 C22.822,0.591 21.119,0 18.906,0 C10.052,0.163 8.984,6.686 10.925,14.156 C10.58,14.366 10.012,15.034 10.154,16.221 C10.42,18.432 11.324,18.992 11.898,19.039 C12.118,21.101 13.478,23.543 14.21,23.927 C14.21,25.4 14.265,26.525 14.119,28.137 C12.367,32.848 0.546,31.525 0,40.609 L38,40.609 C37.455,31.525 25.685,32.848 23.933,28.137 Z" id="Shape" fill="#FFFFFF"></path>
    </g>
</svg>