<?xml version="1.0" encoding="UTF-8"?>
<svg width="138px" height="16px" viewBox="0 0 138 16" version="1.1" xmlns="http://www.w3.org/2000/svg" xmlns:xlink="http://www.w3.org/1999/xlink">
    <!-- Generator: Sketch 39.1 (31720) - http://www.bohemiancoding.com/sketch -->
    <title>Untitled</title>
    <desc>Created with Sketch.</desc>
    <defs>
        <polygon id="path-1" points="0.375616168 14.96 12.3659156 14.96 12.3659156 0.0590693333 0.375616168 0.0590693333 0.375616168 14.96"></polygon>
        <polygon id="path-3" points="0 0.246069333 0 12.846016 21.127015 12.846016 21.127015 0.246069333 1.11990943e-20 0.246069333"></polygon>
    </defs>
    <g id="Page-1" stroke="none" stroke-width="1" fill="none" fill-rule="evenodd">
        <g>
            <path d="M44.125624,7.05876267 L44.125624,3.433456 L45.9154922,3.433456 C47.3347437,3.433456 48.0437497,4.02414933 48.0437497,5.232736 C48.0437497,6.44086933 47.3347437,7.05876267 45.9398695,7.05876267 L44.125624,7.05876267 Z M41.3119114,0.748362667 L41.3119114,12.8306027 L44.125624,12.8306027 L44.125624,9.52806933 L46.1844683,9.52806933 C49.6344683,9.52806933 51.0297557,7.78318933 51.0297557,5.33972267 C51.0297557,2.73532267 49.4630012,0.748362667 45.9638335,0.748362667 L41.3119114,0.748362667 Z" id="Fill-1" fill="#80BA27"></path>
            <path d="M55.0815844,5.662224 L60.4896144,5.662224 C60.5135784,4.15851733 59.5347701,3.03017067 57.9688419,3.03017067 C56.3781234,3.03017067 55.3997281,3.917344 55.0815844,5.662224 L55.0815844,5.662224 Z M62.3980635,11.6221973 C61.3217461,12.615904 59.9268719,13.125904 58.1886503,13.125904 C56.4020874,13.125904 54.9832491,12.535664 53.8821413,11.3805707 C52.8054108,10.226384 52.2670455,8.69593067 52.2670455,6.79011733 C52.2670455,4.99083733 52.8054108,3.487584 53.8577641,2.27899733 C54.9101174,1.070864 56.3293689,0.453424 58.0911413,0.453424 C59.5347701,0.453424 60.7829677,0.990170667 61.7861533,2.03737067 C62.7893389,3.08457067 63.3033269,4.427344 63.3033269,6.064784 C63.3033269,6.73617067 63.2541593,7.30011733 63.1322731,7.72987733 L55.1790934,7.72987733 C55.3997281,9.52779733 56.7206443,10.5482507 58.4824168,10.5482507 C59.7302012,10.5482507 60.7581772,10.1728907 61.590309,9.44755733 L62.3980635,11.6221973 Z" id="Fill-3" fill="#80BA27"></path>
            <g id="Group-7" transform="translate(64.455090, 0.689520)">
                <mask id="mask-2" fill="white">
                    <use xlink:href="#path-1"></use>
                </mask>
                <g id="Clip-6"></g>
                <polygon id="Fill-5" fill="#4B5C66" mask="url(#mask-2)" points="0.375616168 12.140856 0.375616168 0.0590693333 3.19015509 0.0590693333 3.19015509 9.26808267 7.7172988 9.26808267 7.7172988 0.0590693333 10.5310114 0.0590693333 10.5310114 9.26808267 12.3659156 9.26808267 12.3659156 14.960136 9.72325689 14.960136 9.72325689 12.140856"></polygon>
            </g>
            <polygon id="Fill-8" fill="#4B5C66" points="81.0873126 12.830376 78.2731868 12.830376 78.2731868 0.748589333 81.0873126 0.748589333 81.0873126 8.40040267 86.2263665 0.748589333 89.040079 0.748589333 89.040079 12.830376 86.2263665 12.830376 86.2263665 5.17856267"></polygon>
            <path d="M101.304189,0.748408 L97.0708114,6.494408 L101.817763,12.8301947 L98.1471287,12.8301947 L93.7910389,6.73603467 L97.7554401,0.748408 L101.304189,0.748408 Z M90.8798174,12.8301947 L93.6939431,12.8301947 L93.6939431,0.748408 L90.8798174,0.748408 L90.8798174,12.8301947 Z" id="Fill-10" fill="#4B5C66"></path>
            <path d="M110.797886,12.830376 L110.797886,3.83624267 L107.885838,3.83624267 L107.812707,5.124616 C107.175593,11.730136 105.903018,13.0457093 102.844707,13.0720027 L102.599695,10.0645893 C102.967006,10.0922427 103.28515,9.98480267 103.603293,9.74272267 C104.264371,9.205976 104.924623,7.40760267 105.095677,4.50808267 L105.267144,0.748589333 L113.612012,0.748589333 L113.612012,12.830376 L110.797886,12.830376 Z" id="Fill-12" fill="#4B5C66"></path>
            <path d="M117.822665,5.662224 L123.230695,5.662224 C123.255072,4.15851733 122.27585,3.03017067 120.709509,3.03017067 C119.119204,3.03017067 118.141222,3.917344 117.822665,5.662224 L117.822665,5.662224 Z M125.139557,11.6221973 C124.062826,12.615904 122.667539,13.125904 120.930144,13.125904 C119.143581,13.125904 117.724329,12.535664 116.623635,11.3805707 C115.546904,10.226384 115.008539,8.69593067 115.008539,6.79011733 C115.008539,4.99083733 115.546904,3.487584 116.598844,2.27899733 C117.651198,1.070864 119.070449,0.453424 120.831808,0.453424 C122.27585,0.453424 123.524461,0.990170667 124.527647,2.03737067 C125.530419,3.08457067 126.044407,4.427344 126.044407,6.064784 C126.044407,6.73617067 125.995653,7.30011733 125.87294,7.72987733 L117.920174,7.72987733 C118.141222,9.52779733 119.461725,10.5482507 121.223497,10.5482507 C122.471695,10.5482507 123.499257,10.1728907 124.331802,9.44755733 L125.139557,11.6221973 Z" id="Fill-14" fill="#4B5C66"></path>
            <polygon id="Fill-16" fill="#4B5C66" points="134.974619 12.830376 134.974619 8.21272267 130.153708 8.21272267 130.153708 12.830376 127.339169 12.830376 127.339169 0.748589333 130.153708 0.748589333 130.153708 5.31274933 134.974619 5.31274933 134.974619 0.748589333 137.788331 0.748589333 137.788331 12.830376"></polygon>
            <g id="Group-20" transform="translate(0.000000, 0.236187)">
                <mask id="mask-4" fill="white">
                    <use xlink:href="#path-3"></use>
                </mask>
                <g id="Clip-19"></g>
                <path d="M18.9107515,7.73876267 L18.6281407,8.12228267 L18.6120269,8.14766933 C18.1604281,8.80590933 17.4584461,9.22342933 16.6552365,9.22342933 C15.9528413,9.22342933 15.333494,8.904736 14.8818952,8.38702933 L10.3526856,2.76252267 L9.96636826,2.28334933 L9.93538024,2.24662933 L9.92422455,2.229856 L9.91967964,2.22532267 C8.87682934,1.011296 7.38155389,0.246069333 5.74166766,0.246069333 C2.56890719,0.249696 0.00185928144,3.06806933 -0.000206586826,6.546496 C0.00185928144,10.026736 2.56890719,12.8442027 5.74166766,12.846016 C7.55591317,12.846016 9.1817515,11.9162293 10.2283204,10.4732693 L8.01164371,7.71926933 L7.71746407,8.12228267 L7.69845808,8.14766933 C7.2480988,8.80590933 6.54611677,9.22342933 5.74166766,9.22342933 C4.39472156,9.22116267 3.30394311,8.02254933 3.3010509,6.546496 C3.30394311,5.069536 4.39472156,3.86956267 5.74166766,3.86956267 C6.44282335,3.86956267 7.05886527,4.18236267 7.50881138,4.70006933 L7.87942814,5.16020267 L12.4359072,10.816896 L12.4606976,10.8472693 L12.4722665,10.8608693 L12.4788772,10.8667627 C13.5200749,12.083056 15.0141108,12.846016 16.6552365,12.846016 L16.6568892,12.846016 C18.4620449,12.846016 20.0812725,11.9234827 21.127015,10.493216 L18.9107515,7.73876267 Z" id="Fill-18" fill="#80BA27" mask="url(#mask-4)"></path>
            </g>
            <path d="M14.3682377,5.59050667 L14.6508485,5.20562667 L14.6661359,5.18069333 C15.1185611,4.52472 15.8193036,4.10584 16.6237527,4.10584 C17.3265611,4.10584 17.9454952,4.42272 18.3962677,4.94133333 L22.9271299,10.5667467 L23.3130341,11.0481867 L23.343609,11.0835467 L23.3560042,11.0966933 L23.3617886,11.10304 C24.4013335,12.31888 25.8953695,13.08184 27.5381479,13.08184 C30.7096689,13.0800267 33.2783695,10.26392 33.2791958,6.78232 C33.2783695,3.30434667 30.7096689,0.48552 27.5381479,0.483253333 C25.7255551,0.482346667 24.0980641,1.41530667 23.0498425,2.85736 L25.2673455,5.61136 L25.5648305,5.20562667 L25.5805311,5.18069333 C26.0329563,4.52472 26.7353515,4.10584 27.5381479,4.10584 C28.8855072,4.10584 29.9762856,5.30581333 29.9787647,6.78232 C29.9762856,8.26154667 28.8855072,9.45744 27.5381479,9.45970667 C26.8382317,9.45970667 26.2209503,9.14509333 25.7701778,8.62965333 L25.3987347,8.16861333 L20.8443216,2.51192 L20.8199443,2.48290667 L20.8067228,2.46885333 L20.800112,2.4616 C19.7597407,1.24757333 18.2652916,0.482346667 16.6237527,0.483253333 C14.8190102,0.483253333 13.1981299,1.40714667 12.1519743,2.83696 L14.3682377,5.59050667 Z" id="Fill-21" fill="#4B5C66"></path>
        </g>
    </g>
</svg>